# xmcd
# Copyright (c) 1998 CDDB Inc.
#
# Track frame offsets:
#	150
#	10700
#	24170
#	37985
#	49850
#	64960
#	78125
#	97865
#	107660
#	121250
#	132660
#	145150
#	164850
#	169770
#	183705
#	197555
#	210700
#	221230
#	232245
#	247115
#	258760
#
# Disc length: 3680 seconds
#
# Revision: 0
# Processed by: cddbd v1.4PL0 Copyright (c) Steve Scherf et al.
# Submitted via: audiograbber 1.70
#
DISCID=2f0e5e15
DTITLE=The Lipattomat - Ride With Us...
DYEAR=1900
DGENRE=
TTITLE0=Little Pittle Clown
TTITLE1=Party Bar
TTITLE2=Texas Ranger
TTITLE3=My Dream
TTITLE4=Hope
TTITLE5=Fiddle Song
TTITLE6=I've Been Searching
TTITLE7=Ride With Us
TTITLE8=Take Me
TTITLE9=Billy
TTITLE10=Jesse James
TTITLE11=Cowboy Steve
TTITLE12=Berber
TTITLE13=Dixie Song
TTITLE14=Lonesome Stallion
TTITLE15=Texas Man
TTITLE16=Johnny
TTITLE17=When We Came
TTITLE18=Blue Texas Skies
TTITLE19=Hey Cowboy
TTITLE20=Rodeo
EXTD=
EXTT0=
EXTT1=
EXTT2=
EXTT3=
EXTT4=
EXTT5=
EXTT6=
EXTT7=
EXTT8=
EXTT9=
EXTT10=
EXTT11=
EXTT12=
EXTT13=
EXTT14=
EXTT15=
EXTT16=
EXTT17=
EXTT18=
EXTT19=
EXTT20=
PLAYORDER=
